<?xml version="1.0" encoding="UTF-8"?>
<!DOCTYPE svg PUBLIC "-//W3C//DTD SVG 1.1//EN" "http://www.w3.org/Graphics/SVG/1.1/DTD/svg11.dtd">
<svg xmlns="http://www.w3.org/2000/svg" version="1.1" width="238px" height="224px" style="shape-rendering:geometricPrecision; text-rendering:geometricPrecision; image-rendering:optimizeQuality; fill-rule:evenodd; clip-rule:evenodd" xmlns:xlink="http://www.w3.org/1999/xlink">
<g><path style="opacity:1" fill="#b8e6f1" d="M 118.5,4.5 C 117.5,6.16667 116.167,7.5 114.5,8.5C 114.833,6.16667 116.167,4.83333 118.5,4.5 Z"/></g>
<g><path style="opacity:1" fill="#16aed4" d="M 118.5,4.5 C 120.167,4.5 121.833,4.5 123.5,4.5C 124.167,6.5 125.5,7.83333 127.5,8.5C 128.674,9.51369 129.34,10.847 129.5,12.5C 129.427,14.0269 130.094,15.0269 131.5,15.5C 132.338,15.8417 132.672,16.5084 132.5,17.5C 132.427,19.0269 133.094,20.0269 134.5,20.5C 134.216,23.8573 135.549,26.1906 138.5,27.5C 139.338,27.8417 139.672,28.5084 139.5,29.5C 139.427,31.0269 140.094,32.0269 141.5,32.5C 141.427,34.0269 142.094,35.0269 143.5,35.5C 144.674,36.5137 145.34,37.847 145.5,39.5C 145.427,41.0269 146.094,42.0269 147.5,42.5C 147.5,42.8333 147.5,43.1667 147.5,43.5C 147.427,45.0269 148.094,46.0269 149.5,46.5C 150.401,47.2905 151.068,48.2905 151.5,49.5C 151.427,51.0269 152.094,52.0269 153.5,52.5C 153.229,54.3797 153.896,55.713 155.5,56.5C 156.338,56.8417 156.672,57.5084 156.5,58.5C 156.427,60.0269 157.094,61.0269 158.5,61.5C 158.241,63.9893 159.241,65.656 161.5,66.5C 162.079,69.3311 163.412,71.6644 165.5,73.5C 165.833,74.1667 166.167,74.8333 166.5,75.5C 166.427,77.0269 167.094,78.0269 168.5,78.5C 169.338,78.8417 169.672,79.5084 169.5,80.5C 169.427,82.0269 170.094,83.0269 171.5,83.5C 171.992,85.8185 172.992,87.8185 174.5,89.5C 175.338,89.8417 175.672,90.5084 175.5,91.5C 175.738,93.4044 176.738,94.7377 178.5,95.5C 178.427,97.0269 179.094,98.0269 180.5,98.5C 180.229,100.38 180.896,101.713 182.5,102.5C 183.338,102.842 183.672,103.508 183.5,104.5C 183.241,106.989 184.241,108.656 186.5,109.5C 186.427,111.027 187.094,112.027 188.5,112.5C 189.079,115.331 190.412,117.664 192.5,119.5C 193.338,119.842 193.672,120.508 193.5,121.5C 193.427,123.027 194.094,124.027 195.5,124.5C 196.338,124.842 196.672,125.508 196.5,126.5C 196.427,128.027 197.094,129.027 198.5,129.5C 198.992,131.819 199.992,133.819 201.5,135.5C 202.401,136.29 203.068,137.29 203.5,138.5C 203.427,140.027 204.094,141.027 205.5,141.5C 206.338,141.842 206.672,142.508 206.5,143.5C 206.75,145.674 207.75,147.341 209.5,148.5C 210.674,149.514 211.34,150.847 211.5,152.5C 211.427,154.027 212.094,155.027 213.5,155.5C 213.427,157.027 214.094,158.027 215.5,158.5C 216.338,158.842 216.672,159.508 216.5,160.5C 216.66,162.153 217.326,163.486 218.5,164.5C 218.427,166.027 219.094,167.027 220.5,167.5C 220.241,169.989 221.241,171.656 223.5,172.5C 224.079,175.331 225.412,177.664 227.5,179.5C 228.338,179.842 228.672,180.508 228.5,181.5C 228.427,183.027 229.094,184.027 230.5,184.5C 231.648,188.981 231.815,193.648 231,198.5C 230.065,201.595 228.231,203.929 225.5,205.5C 223.973,205.427 222.973,206.094 222.5,207.5C 220.371,209.95 217.704,211.617 214.5,212.5C 210.884,213.314 207.551,214.648 204.5,216.5C 200.498,218.61 196.165,219.943 191.5,220.5C 180.523,221.351 169.523,221.684 158.5,221.5C 152.729,220.932 147.395,219.265 142.5,216.5C 141.365,214.787 139.698,214.12 137.5,214.5C 135.824,212.166 133.491,211.166 130.5,211.5C 127.768,210.134 125.101,208.801 122.5,207.5C 121.035,206.263 119.368,205.263 117.5,204.5C 115.572,202.706 113.238,201.706 110.5,201.5C 107.603,200.871 104.936,199.871 102.5,198.5C 99.3401,196 95.6734,194.667 91.5,194.5C 89.9739,192.87 87.9739,192.037 85.5,192C 78.6536,191.179 71.987,191.346 65.5,192.5C 60.8683,193.383 56.2016,194.05 51.5,194.5C 45.3282,194.789 39.6616,196.456 34.5,199.5C 31.5939,200.787 28.5939,201.787 25.5,202.5C 20.749,203.71 16.4156,205.71 12.5,208.5C 10.8984,210.074 8.89837,210.741 6.5,210.5C 6.5,209.5 6.5,208.5 6.5,207.5C 8.74513,204.68 10.7451,201.68 12.5,198.5C 12.8333,197.5 13.5,196.833 14.5,196.5C 16.1563,194.54 17.823,192.54 19.5,190.5C 20.5,188.833 21.8333,187.5 23.5,186.5C 26.0599,184.727 28.3932,182.727 30.5,180.5C 34.5082,177.83 38.5082,175.164 42.5,172.5C 42.8417,171.662 43.5084,171.328 44.5,171.5C 47.6489,171.585 50.3155,170.585 52.5,168.5C 59.1591,166.398 65.8258,164.731 72.5,163.5C 76.8333,163.5 81.1667,163.5 85.5,163.5C 91.2908,164.987 97.2908,165.987 103.5,166.5C 104.918,168.308 106.918,168.975 109.5,168.5C 112.485,169.326 115.151,170.659 117.5,172.5C 121.755,175.125 126.088,177.459 130.5,179.5C 132.153,179.66 133.486,180.326 134.5,181.5C 137.34,183.915 140.673,185.248 144.5,185.5C 145.552,187.256 147.219,187.923 149.5,187.5C 155.762,188.885 162.095,189.885 168.5,190.5C 172.507,190.165 176.507,189.832 180.5,189.5C 182.898,189.741 184.898,189.074 186.5,187.5C 188.5,187.5 189.5,186.5 189.5,184.5C 189.5,183.833 189.5,183.167 189.5,182.5C 188.778,179.286 187.111,176.619 184.5,174.5C 183.326,173.486 182.66,172.153 182.5,170.5C 182.249,168.83 181.582,167.33 180.5,166C 181.151,164.692 180.485,163.859 178.5,163.5C 177.66,161.147 176.326,159.147 174.5,157.5C 173.833,156.167 173.167,154.833 172.5,153.5C 172.759,151.011 171.759,149.344 169.5,148.5C 168.921,145.669 167.588,143.336 165.5,141.5C 163.836,138.841 162.17,136.175 160.5,133.5C 160.25,131.326 159.25,129.659 157.5,128.5C 155.929,126.365 154.596,124.032 153.5,121.5C 153.715,119.821 153.048,118.821 151.5,118.5C 150.662,118.158 150.328,117.492 150.5,116.5C 150.25,114.326 149.25,112.659 147.5,111.5C 147.167,110.833 146.833,110.167 146.5,109.5C 146.715,107.821 146.048,106.821 144.5,106.5C 143.326,105.486 142.66,104.153 142.5,102.5C 142.25,100.326 141.25,98.6594 139.5,97.5C 137.902,95.3021 136.569,92.9687 135.5,90.5C 135.25,88.326 134.25,86.6594 132.5,85.5C 132.573,83.9731 131.906,82.9731 130.5,82.5C 128.733,80.0616 127.399,77.395 126.5,74.5C 125.66,72.1475 124.326,70.1475 122.5,68.5C 121.5,68.5 120.5,68.5 119.5,68.5C 118.094,68.9731 117.427,69.9731 117.5,71.5C 116.331,74.5113 114.664,77.178 112.5,79.5C 111.326,80.5137 110.66,81.847 110.5,83.5C 109.094,83.9731 108.427,84.9731 108.5,86.5C 107.262,89.7378 105.596,92.7378 103.5,95.5C 101.05,97.6291 99.3833,100.296 98.5,103.5C 97.2262,106.76 95.5595,109.76 93.5,112.5C 91.412,114.336 90.0787,116.669 89.5,119.5C 87.8193,122.203 86.1526,124.869 84.5,127.5C 83.35,129.267 84.0167,130.433 86.5,131C 89.4318,131.953 92.4318,132.453 95.5,132.5C 100.017,133.097 104.017,134.763 107.5,137.5C 111.703,140.432 116.037,143.099 120.5,145.5C 121.492,145.328 122.158,145.662 122.5,146.5C 123.262,148.262 124.596,149.262 126.5,149.5C 127.167,149.5 127.5,149.833 127.5,150.5C 127.833,151.5 128.5,152.167 129.5,152.5C 130.5,152.833 131.167,153.5 131.5,154.5C 133.081,156.142 133.747,158.142 133.5,160.5C 131.766,161.562 130.099,161.562 128.5,160.5C 126.898,158.926 124.898,158.259 122.5,158.5C 118.574,156.969 114.574,155.636 110.5,154.5C 105.831,152.421 100.831,151.421 95.5,151.5C 82.6228,149.611 69.9561,150.611 57.5,154.5C 52.4993,155.834 47.4993,157.167 42.5,158.5C 38.1835,158.828 34.1835,160.161 30.5,162.5C 27.4015,160.87 26.7349,158.537 28.5,155.5C 30.4077,154.514 31.4077,152.848 31.5,150.5C 31.3284,149.508 31.6618,148.842 32.5,148.5C 34.588,146.664 35.9213,144.331 36.5,141.5C 38.4077,140.514 39.4077,138.848 39.5,136.5C 40.9063,136.027 41.573,135.027 41.5,133.5C 43.0075,131.819 44.0075,129.819 44.5,127.5C 45.9063,127.027 46.573,126.027 46.5,124.5C 48.4077,123.514 49.4077,121.848 49.5,119.5C 49.8333,118.833 50.1667,118.167 50.5,117.5C 52.664,115.178 54.3307,112.511 55.5,109.5C 57.4077,108.514 58.4077,106.848 58.5,104.5C 58.3284,103.508 58.6618,102.842 59.5,102.5C 61.9236,99.9922 63.5903,96.9922 64.5,93.5C 65.2632,91.6316 66.2632,89.9649 67.5,88.5C 69.6689,86.6597 71.0023,84.3263 71.5,81.5C 72.9063,81.0269 73.573,80.0269 73.5,78.5C 74.9063,78.0269 75.573,77.0269 75.5,75.5C 75.6596,73.847 76.3263,72.5137 77.5,71.5C 79.2503,70.3406 80.2503,68.674 80.5,66.5C 82.4077,65.5144 83.4077,63.8477 83.5,61.5C 84.9063,61.0269 85.573,60.0269 85.5,58.5C 86.6737,57.4863 87.3404,56.153 87.5,54.5C 89.3264,52.8525 90.6597,50.8525 91.5,48.5C 91.5,48.1667 91.5,47.8333 91.5,47.5C 92.9063,47.0269 93.573,46.0269 93.5,44.5C 93.3284,43.5084 93.6618,42.8417 94.5,42.5C 96.6689,40.6597 98.0023,38.3263 98.5,35.5C 99.9063,35.0269 100.573,34.0269 100.5,32.5C 101.906,32.0269 102.573,31.0269 102.5,29.5C 102.833,28.8333 103.167,28.1667 103.5,27.5C 104.674,26.4863 105.34,25.153 105.5,23.5C 106.906,23.0269 107.573,22.0269 107.5,20.5C 108.906,20.0269 109.573,19.0269 109.5,17.5C 111.408,16.5144 112.408,14.8477 112.5,12.5C 113.674,11.4863 114.34,10.153 114.5,8.5C 116.167,7.5 117.5,6.16667 118.5,4.5 Z"/></g>
<g><path style="opacity:1" fill="#bce5f1" d="M 123.5,4.5 C 125.833,4.83333 127.167,6.16667 127.5,8.5C 127.167,6.16667 125.833,4.83333 123.5,4.5 Z"/></g>
<g><path style="opacity:1" fill="#def3f8" d="M 114.5,8.5 C 114.34,10.153 113.674,11.4863 112.5,12.5C 112.229,10.6203 112.896,9.28696 114.5,8.5 Z"/></g>
<g><path style="opacity:1" fill="#d9f2f7" d="M 129.5,12.5 C 130.906,12.9731 131.573,13.9731 131.5,15.5C 130.094,15.0269 129.427,14.0269 129.5,12.5 Z"/></g>
<g><path style="opacity:1" fill="#8ad1e9" d="M 112.5,12.5 C 112.408,14.8477 111.408,16.5144 109.5,17.5C 109.75,15.326 110.75,13.6594 112.5,12.5 Z"/></g>
<g><path style="opacity:1" fill="#b9e6f0" d="M 109.5,17.5 C 109.573,19.0269 108.906,20.0269 107.5,20.5C 107.427,18.9731 108.094,17.9731 109.5,17.5 Z"/></g>
<g><path style="opacity:1" fill="#ceeef4" d="M 132.5,17.5 C 133.906,17.9731 134.573,18.9731 134.5,20.5C 133.094,20.0269 132.427,19.0269 132.5,17.5 Z"/></g>
<g><path style="opacity:1" fill="#daf2f8" d="M 107.5,20.5 C 107.573,22.0269 106.906,23.0269 105.5,23.5C 105.427,21.9731 106.094,20.9731 107.5,20.5 Z"/></g>
<g><path style="opacity:1" fill="#a5ddeb" d="M 134.5,20.5 C 136.588,22.3356 137.921,24.6689 138.5,27.5C 135.549,26.1906 134.216,23.8573 134.5,20.5 Z"/></g>
<g><path style="opacity:1" fill="#eaf7fa" d="M 105.5,23.5 C 105.34,25.153 104.674,26.4863 103.5,27.5C 103.229,25.6203 103.896,24.287 105.5,23.5 Z"/></g>
<g><path style="opacity:1" fill="#c5eaf3" d="M 102.5,29.5 C 102.573,31.0269 101.906,32.0269 100.5,32.5C 100.427,30.9731 101.094,29.9731 102.5,29.5 Z"/></g>
<g><path style="opacity:1" fill="#daf2f7" d="M 139.5,29.5 C 140.906,29.9731 141.573,30.9731 141.5,32.5C 140.094,32.0269 139.427,31.0269 139.5,29.5 Z"/></g>
<g><path style="opacity:1" fill="#d4eff7" d="M 100.5,32.5 C 100.573,34.0269 99.9063,35.0269 98.5,35.5C 98.427,33.9731 99.0937,32.9731 100.5,32.5 Z"/></g>
<g><path style="opacity:1" fill="#e3f5f8" d="M 141.5,32.5 C 142.906,32.9731 143.573,33.9731 143.5,35.5C 142.094,35.0269 141.427,34.0269 141.5,32.5 Z"/></g>
<g><path style="opacity:1" fill="#d5f0f7" d="M 98.5,35.5 C 98.0023,38.3263 96.6689,40.6597 94.5,42.5C 95.0787,39.6689 96.412,37.3356 98.5,35.5 Z"/></g>
<g><path style="opacity:1" fill="#e3f5fa" d="M 145.5,39.5 C 146.906,39.9731 147.573,40.9731 147.5,42.5C 146.094,42.0269 145.427,41.0269 145.5,39.5 Z"/></g>
<g><path style="opacity:1" fill="#c2eaf2" d="M 147.5,43.5 C 148.906,43.9731 149.573,44.9731 149.5,46.5C 148.094,46.0269 147.427,45.0269 147.5,43.5 Z"/></g>
<g><path style="opacity:1" fill="#dff3f8" d="M 93.5,44.5 C 93.573,46.0269 92.9063,47.0269 91.5,47.5C 91.427,45.9731 92.0937,44.9731 93.5,44.5 Z"/></g>
<g><path style="opacity:1" fill="#e4f5f9" d="M 151.5,49.5 C 152.906,49.9731 153.573,50.9731 153.5,52.5C 152.094,52.0269 151.427,51.0269 151.5,49.5 Z"/></g>
<g><path style="opacity:1" fill="#c5eaf4" d="M 91.5,48.5 C 90.6597,50.8525 89.3264,52.8525 87.5,54.5C 87.8449,51.8021 89.1782,49.8021 91.5,48.5 Z"/></g>
<g><path style="opacity:1" fill="#d7f2f7" d="M 153.5,52.5 C 154.674,53.5137 155.34,54.847 155.5,56.5C 153.896,55.713 153.229,54.3797 153.5,52.5 Z"/></g>
<g><path style="opacity:1" fill="#e4f5f9" d="M 87.5,54.5 C 87.3404,56.153 86.6737,57.4863 85.5,58.5C 85.2291,56.6203 85.8958,55.287 87.5,54.5 Z"/></g>
<g><path style="opacity:1" fill="#c6ebf4" d="M 85.5,58.5 C 85.573,60.0269 84.9063,61.0269 83.5,61.5C 83.427,59.9731 84.0937,58.9731 85.5,58.5 Z"/></g>
<g><path style="opacity:1" fill="#dcf3f8" d="M 156.5,58.5 C 157.906,58.9731 158.573,59.9731 158.5,61.5C 157.094,61.0269 156.427,60.0269 156.5,58.5 Z"/></g>
<g><path style="opacity:1" fill="#9cd7eb" d="M 158.5,61.5 C 159.89,62.8993 160.89,64.5659 161.5,66.5C 159.241,65.656 158.241,63.9893 158.5,61.5 Z"/></g>
<g><path style="opacity:1" fill="#a4ddee" d="M 83.5,61.5 C 83.4077,63.8477 82.4077,65.5144 80.5,66.5C 80.7497,64.326 81.7497,62.6594 83.5,61.5 Z"/></g>
<g><path style="opacity:1" fill="#dbf2f8" d="M 80.5,66.5 C 80.2503,68.674 79.2503,70.3406 77.5,71.5C 77.7497,69.326 78.7497,67.6594 80.5,66.5 Z"/></g>
<g><path style="opacity:1" fill="#def4f8" d="M 161.5,66.5 C 163.588,68.3356 164.921,70.6689 165.5,73.5C 163.412,71.6644 162.079,69.3311 161.5,66.5 Z"/></g>
<g><path style="opacity:1" fill="#ddf4f7" d="M 119.5,68.5 C 119.573,70.0269 118.906,71.0269 117.5,71.5C 117.427,69.9731 118.094,68.9731 119.5,68.5 Z"/></g>
<g><path style="opacity:1" fill="#c6ebf4" d="M 122.5,68.5 C 124.326,70.1475 125.66,72.1475 126.5,74.5C 124.178,73.1979 122.845,71.1979 122.5,68.5 Z"/></g>
<g><path style="opacity:1" fill="#c7eaf4" d="M 75.5,75.5 C 75.573,77.0269 74.9063,78.0269 73.5,78.5C 73.427,76.9731 74.0937,75.9731 75.5,75.5 Z"/></g>
<g><path style="opacity:1" fill="#dcf2f7" d="M 166.5,75.5 C 167.906,75.9731 168.573,76.9731 168.5,78.5C 167.094,78.0269 166.427,77.0269 166.5,75.5 Z"/></g>
<g><path style="opacity:1" fill="#d9f2f7" d="M 73.5,78.5 C 73.573,80.0269 72.9063,81.0269 71.5,81.5C 71.427,79.9731 72.0937,78.9731 73.5,78.5 Z"/></g>
<g><path style="opacity:1" fill="#e5f6f9" d="M 112.5,79.5 C 112.771,81.3797 112.104,82.713 110.5,83.5C 110.66,81.847 111.326,80.5137 112.5,79.5 Z"/></g>
<g><path style="opacity:1" fill="#d8f2f8" d="M 169.5,80.5 C 170.906,80.9731 171.573,81.9731 171.5,83.5C 170.094,83.0269 169.427,82.0269 169.5,80.5 Z"/></g>
<g><path style="opacity:1" fill="#e4f6f9" d="M 130.5,82.5 C 131.906,82.9731 132.573,83.9731 132.5,85.5C 131.094,85.0269 130.427,84.0269 130.5,82.5 Z"/></g>
<g><path style="opacity:1" fill="#ccedf4" d="M 110.5,83.5 C 110.573,85.0269 109.906,86.0269 108.5,86.5C 108.427,84.9731 109.094,83.9731 110.5,83.5 Z"/></g>
<g><path style="opacity:1" fill="#e3f5f9" d="M 171.5,83.5 C 173.539,84.911 174.539,86.911 174.5,89.5C 172.992,87.8185 171.992,85.8185 171.5,83.5 Z"/></g>
<g><path style="opacity:1" fill="#dff3f9" d="M 71.5,81.5 C 71.0023,84.3263 69.6689,86.6597 67.5,88.5C 68.0787,85.6689 69.412,83.3356 71.5,81.5 Z"/></g>
<g><path style="opacity:1" fill="#caecf4" d="M 132.5,85.5 C 134.25,86.6594 135.25,88.326 135.5,90.5C 133.75,89.3406 132.75,87.674 132.5,85.5 Z"/></g>
<g><path style="opacity:1" fill="#bbe7f1" d="M 175.5,91.5 C 177.262,92.2623 178.262,93.5956 178.5,95.5C 176.738,94.7377 175.738,93.4044 175.5,91.5 Z"/></g>
<g><path style="opacity:1" fill="#d7f1f6" d="M 64.5,93.5 C 63.5903,96.9922 61.9236,99.9922 59.5,102.5C 60.4097,99.0078 62.0764,96.0078 64.5,93.5 Z"/></g>
<g><path style="opacity:1" fill="#e8f6fb" d="M 178.5,95.5 C 179.906,95.9731 180.573,96.9731 180.5,98.5C 179.094,98.0269 178.427,97.0269 178.5,95.5 Z"/></g>
<g><path style="opacity:1" fill="#d4f0f7" d="M 139.5,97.5 C 141.25,98.6594 142.25,100.326 142.5,102.5C 140.75,101.341 139.75,99.674 139.5,97.5 Z"/></g>
<g><path style="opacity:1" fill="#e2f5f9" d="M 180.5,98.5 C 181.674,99.5137 182.34,100.847 182.5,102.5C 180.896,101.713 180.229,100.38 180.5,98.5 Z"/></g>
<g><path style="opacity:1" fill="#c8ecf3" d="M 103.5,95.5 C 102.617,98.7043 100.95,101.371 98.5,103.5C 99.3833,100.296 101.05,97.6291 103.5,95.5 Z"/></g>
<g><path style="opacity:1" fill="#a5dded" d="M 144.5,106.5 C 146.048,106.821 146.715,107.821 146.5,109.5C 145.599,108.71 144.932,107.71 144.5,106.5 Z"/></g>
<g><path style="opacity:1" fill="#8ed2e7" d="M 183.5,104.5 C 184.89,105.899 185.89,107.566 186.5,109.5C 184.241,108.656 183.241,106.989 183.5,104.5 Z"/></g>
<g><path style="opacity:1" fill="#92d5e9" d="M 58.5,104.5 C 58.4077,106.848 57.4077,108.514 55.5,109.5C 55.7497,107.326 56.7497,105.659 58.5,104.5 Z"/></g>
<g><path style="opacity:1" fill="#dcf3f7" d="M 186.5,109.5 C 187.906,109.973 188.573,110.973 188.5,112.5C 187.094,112.027 186.427,111.027 186.5,109.5 Z"/></g>
<g><path style="opacity:1" fill="#e6f6fa" d="M 147.5,111.5 C 149.25,112.659 150.25,114.326 150.5,116.5C 148.75,115.341 147.75,113.674 147.5,111.5 Z"/></g>
<g><path style="opacity:1" fill="#dbf2f7" d="M 55.5,109.5 C 54.3307,112.511 52.664,115.178 50.5,117.5C 51.1695,114.151 52.8361,111.484 55.5,109.5 Z"/></g>
<g><path style="opacity:1" fill="#d7f1f6" d="M 93.5,112.5 C 92.9213,115.331 91.588,117.664 89.5,119.5C 90.0787,116.669 91.412,114.336 93.5,112.5 Z"/></g>
<g><path style="opacity:1" fill="#e5f6f9" d="M 188.5,112.5 C 190.588,114.336 191.921,116.669 192.5,119.5C 190.412,117.664 189.079,115.331 188.5,112.5 Z"/></g>
<g><path style="opacity:1" fill="#aae0ef" d="M 151.5,118.5 C 153.048,118.821 153.715,119.821 153.5,121.5C 152.599,120.71 151.932,119.71 151.5,118.5 Z"/></g>
<g><path style="opacity:1" fill="#aaddee" d="M 49.5,119.5 C 49.4077,121.848 48.4077,123.514 46.5,124.5C 46.7497,122.326 47.7497,120.659 49.5,119.5 Z"/></g>
<g><path style="opacity:1" fill="#def4f8" d="M 193.5,121.5 C 194.906,121.973 195.573,122.973 195.5,124.5C 194.094,124.027 193.427,123.027 193.5,121.5 Z"/></g>
<g><path style="opacity:1" fill="#dff4f9" d="M 46.5,124.5 C 46.573,126.027 45.9063,127.027 44.5,127.5C 44.427,125.973 45.0937,124.973 46.5,124.5 Z"/></g>
<g><path style="opacity:1" fill="#dff4f8" d="M 196.5,126.5 C 197.906,126.973 198.573,127.973 198.5,129.5C 197.094,129.027 196.427,128.027 196.5,126.5 Z"/></g>
<g><path style="opacity:1" fill="#c0e9f3" d="M 84.5,127.5 C 88.0625,129.314 91.7292,130.98 95.5,132.5C 92.4318,132.453 89.4318,131.953 86.5,131C 84.0167,130.433 83.35,129.267 84.5,127.5 Z"/></g>
<g><path style="opacity:1" fill="#ddf3f8" d="M 157.5,128.5 C 159.25,129.659 160.25,131.326 160.5,133.5C 158.75,132.341 157.75,130.674 157.5,128.5 Z"/></g>
<g><path style="opacity:1" fill="#e4f6f9" d="M 44.5,127.5 C 44.0075,129.819 43.0075,131.819 41.5,133.5C 41.461,130.911 42.461,128.911 44.5,127.5 Z"/></g>
<g><path style="opacity:1" fill="#e9f7fa" d="M 198.5,129.5 C 200.539,130.911 201.539,132.911 201.5,135.5C 199.992,133.819 198.992,131.819 198.5,129.5 Z"/></g>
<g><path style="opacity:1" fill="#d7f1f6" d="M 41.5,133.5 C 41.573,135.027 40.9063,136.027 39.5,136.5C 39.427,134.973 40.0937,133.973 41.5,133.5 Z"/></g>
<g><path style="opacity:1" fill="#acdfec" d="M 39.5,136.5 C 39.4077,138.848 38.4077,140.514 36.5,141.5C 36.7497,139.326 37.7497,137.659 39.5,136.5 Z"/></g>
<g><path style="opacity:1" fill="#ddf4f8" d="M 203.5,138.5 C 204.906,138.973 205.573,139.973 205.5,141.5C 204.094,141.027 203.427,140.027 203.5,138.5 Z"/></g>
<g><path style="opacity:1" fill="#a3dcea" d="M 107.5,137.5 C 112.634,138.899 116.967,141.565 120.5,145.5C 116.037,143.099 111.703,140.432 107.5,137.5 Z"/></g>
<g><path style="opacity:1" fill="#d5f1f6" d="M 36.5,141.5 C 35.9213,144.331 34.588,146.664 32.5,148.5C 33.0787,145.669 34.412,143.336 36.5,141.5 Z"/></g>
<g><path style="opacity:1" fill="#cfeef6" d="M 165.5,141.5 C 167.588,143.336 168.921,145.669 169.5,148.5C 167.331,146.66 165.998,144.326 165.5,141.5 Z"/></g>
<g><path style="opacity:1" fill="#def3f8" d="M 206.5,143.5 C 208.25,144.659 209.25,146.326 209.5,148.5C 207.75,147.341 206.75,145.674 206.5,143.5 Z"/></g>
<g><path style="opacity:1" fill="#e2f5f9" d="M 122.5,146.5 C 124.404,146.738 125.738,147.738 126.5,149.5C 124.596,149.262 123.262,148.262 122.5,146.5 Z"/></g>
<g><path style="opacity:1" fill="#97d6e9" d="M 169.5,148.5 C 171.759,149.344 172.759,151.011 172.5,153.5C 170.75,152.341 169.75,150.674 169.5,148.5 Z"/></g>
<g><path style="opacity:1" fill="#eef8fc" d="M 127.5,150.5 C 128.833,150.5 129.5,151.167 129.5,152.5C 128.5,152.167 127.833,151.5 127.5,150.5 Z"/></g>
<g><path style="opacity:1" fill="#c6ebf4" d="M 95.5,151.5 C 82.7185,151.182 70.0519,152.182 57.5,154.5C 69.9561,150.611 82.6228,149.611 95.5,151.5 Z"/></g>
<g><path style="opacity:1" fill="#d9f2f8" d="M 95.5,151.5 C 100.831,151.421 105.831,152.421 110.5,154.5C 105.291,153.942 100.291,152.942 95.5,151.5 Z"/></g>
<g><path style="opacity:1" fill="#98d8e8" d="M 31.5,150.5 C 31.4077,152.848 30.4077,154.514 28.5,155.5C 28.7497,153.326 29.7497,151.659 31.5,150.5 Z"/></g>
<g><path style="opacity:1" fill="#d1f0f5" d="M 211.5,152.5 C 212.906,152.973 213.573,153.973 213.5,155.5C 212.094,155.027 211.427,154.027 211.5,152.5 Z"/></g>
<g><path style="opacity:1" fill="#e9f7fa" d="M 131.5,154.5 C 132.496,154.414 133.329,154.748 134,155.5C 134.78,157.387 134.613,159.054 133.5,160.5C 133.747,158.142 133.081,156.142 131.5,154.5 Z"/></g>
<g><path style="opacity:1" fill="#dff4f9" d="M 213.5,155.5 C 214.906,155.973 215.573,156.973 215.5,158.5C 214.094,158.027 213.427,157.027 213.5,155.5 Z"/></g>
<g><path style="opacity:1" fill="#92d8e8" d="M 122.5,158.5 C 124.898,158.259 126.898,158.926 128.5,160.5C 127.833,160.5 127.167,160.5 126.5,160.5C 124.847,160.34 123.514,159.674 122.5,158.5 Z"/></g>
<g><path style="opacity:1" fill="#d5f0f7" d="M 174.5,157.5 C 176.326,159.147 177.66,161.147 178.5,163.5C 176.178,162.198 174.845,160.198 174.5,157.5 Z"/></g>
<g><path style="opacity:1" fill="#e0f4f9" d="M 126.5,160.5 C 127.167,160.5 127.833,160.5 128.5,160.5C 130.099,161.562 131.766,161.562 133.5,160.5C 131.25,163.034 128.916,163.034 126.5,160.5 Z"/></g>
<g><path style="opacity:1" fill="#ddf3f8" d="M 28.5,155.5 C 26.7349,158.537 27.4015,160.87 30.5,162.5C 34.1835,160.161 38.1835,158.828 42.5,158.5C 38.7571,160.533 34.7571,162.2 30.5,163.5C 26.8529,162.514 25.6862,160.181 27,156.5C 27.3826,155.944 27.8826,155.611 28.5,155.5 Z"/></g>
<g><path style="opacity:1" fill="#e4f5f9" d="M 216.5,160.5 C 218.104,161.287 218.771,162.62 218.5,164.5C 217.326,163.486 216.66,162.153 216.5,160.5 Z"/></g>
<g><path style="opacity:1" fill="#daf2f8" d="M 85.5,163.5 C 91.8659,163.062 97.8659,164.062 103.5,166.5C 97.2908,165.987 91.2908,164.987 85.5,163.5 Z"/></g>
<g><path style="opacity:1" fill="#d0eff6" d="M 72.5,163.5 C 65.8258,164.731 59.1591,166.398 52.5,168.5C 51.8333,168.5 51.1667,168.5 50.5,168.5C 57.307,164.967 64.6403,163.3 72.5,163.5 Z"/></g>
<g><path style="opacity:1" fill="#9ddaea" d="M 178.5,163.5 C 180.485,163.859 181.151,164.692 180.5,166C 181.582,167.33 182.249,168.83 182.5,170.5C 180.412,168.664 179.079,166.331 178.5,163.5 Z"/></g>
<g><path style="opacity:1" fill="#d6f1f7" d="M 218.5,164.5 C 219.906,164.973 220.573,165.973 220.5,167.5C 219.094,167.027 218.427,166.027 218.5,164.5 Z"/></g>
<g><path style="opacity:1" fill="#b2e3ee" d="M 103.5,166.5 C 105.786,166.595 107.786,167.262 109.5,168.5C 106.918,168.975 104.918,168.308 103.5,166.5 Z"/></g>
<g><path style="opacity:1" fill="#7fd1e6" d="M 50.5,168.5 C 51.1667,168.5 51.8333,168.5 52.5,168.5C 50.3155,170.585 47.6489,171.585 44.5,171.5C 46.1815,169.992 48.1815,168.992 50.5,168.5 Z"/></g>
<g><path style="opacity:1" fill="#97d7e9" d="M 220.5,167.5 C 221.89,168.899 222.89,170.566 223.5,172.5C 221.241,171.656 220.241,169.989 220.5,167.5 Z"/></g>
<g><path style="opacity:1" fill="#ccecf5" d="M 42.5,172.5 C 38.5082,175.164 34.5082,177.83 30.5,180.5C 33.5051,176.331 37.5051,173.665 42.5,172.5 Z"/></g>
<g><path style="opacity:1" fill="#c9eaf3" d="M 117.5,172.5 C 122.596,173.546 126.929,175.879 130.5,179.5C 126.088,177.459 121.755,175.125 117.5,172.5 Z"/></g>
<g><path style="opacity:1" fill="#d7f1f7" d="M 223.5,172.5 C 225.588,174.336 226.921,176.669 227.5,179.5C 225.412,177.664 224.079,175.331 223.5,172.5 Z"/></g>
<g><path style="opacity:1" fill="#a4dbec" d="M 184.5,174.5 C 187.111,176.619 188.778,179.286 189.5,182.5C 187.05,180.371 185.383,177.704 184.5,174.5 Z"/></g>
<g><path style="opacity:1" fill="#d8f1f7" d="M 134.5,181.5 C 138.137,182.263 141.47,183.597 144.5,185.5C 140.673,185.248 137.34,183.915 134.5,181.5 Z"/></g>
<g><path style="opacity:1" fill="#d6eff7" d="M 30.5,180.5 C 28.3932,182.727 26.0599,184.727 23.5,186.5C 24.7791,183.348 27.1125,181.348 30.5,180.5 Z"/></g>
<g><path style="opacity:1" fill="#dbf2f8" d="M 228.5,181.5 C 229.906,181.973 230.573,182.973 230.5,184.5C 229.094,184.027 228.427,183.027 228.5,181.5 Z"/></g>
<g><path style="opacity:1" fill="#a5ddec" d="M 144.5,185.5 C 146.553,185.402 148.22,186.069 149.5,187.5C 147.219,187.923 145.552,187.256 144.5,185.5 Z"/></g>
<g><path style="opacity:1" fill="#d3f0f7" d="M 189.5,184.5 C 189.5,186.5 188.5,187.5 186.5,187.5C 187.167,186.167 188.167,185.167 189.5,184.5 Z"/></g>
<g><path style="opacity:1" fill="#a9ddeb" d="M 186.5,187.5 C 184.898,189.074 182.898,189.741 180.5,189.5C 182.214,188.262 184.214,187.595 186.5,187.5 Z"/></g>
<g><path style="opacity:1" fill="#7fd0e6" d="M 65.5,192.5 C 71.987,191.346 78.6536,191.179 85.5,192C 87.9739,192.037 89.9739,192.87 91.5,194.5C 82.9241,192.858 74.2574,192.191 65.5,192.5 Z"/></g>
<g><path style="opacity:1" fill="#e1f4f9" d="M 19.5,190.5 C 17.823,192.54 16.1563,194.54 14.5,196.5C 14.7717,193.268 16.4384,191.268 19.5,190.5 Z"/></g>
<g><path style="opacity:1" fill="#bfe9f2" d="M 91.5,194.5 C 95.6734,194.667 99.3401,196 102.5,198.5C 98.4632,197.935 94.7966,196.601 91.5,194.5 Z"/></g>
<g><path style="opacity:1" fill="#daf2f7" d="M 51.5,194.5 C 46.0685,196.612 40.4018,198.279 34.5,199.5C 39.6616,196.456 45.3282,194.789 51.5,194.5 Z"/></g>
<g><path style="opacity:1" fill="#ddf3f8" d="M 12.5,198.5 C 10.7451,201.68 8.74513,204.68 6.5,207.5C 7.24606,203.677 9.24606,200.677 12.5,198.5 Z"/></g>
<g><path style="opacity:1" fill="#89d3e7" d="M 110.5,201.5 C 113.238,201.706 115.572,202.706 117.5,204.5C 116.833,204.5 116.167,204.5 115.5,204.5C 113.566,203.89 111.899,202.89 110.5,201.5 Z"/></g>
<g><path style="opacity:1" fill="#cdeef5" d="M 25.5,202.5 C 21.5844,205.29 17.251,207.29 12.5,208.5C 16.4156,205.71 20.749,203.71 25.5,202.5 Z"/></g>
<g><path style="opacity:1" fill="#dff4f9" d="M 115.5,204.5 C 116.167,204.5 116.833,204.5 117.5,204.5C 119.368,205.263 121.035,206.263 122.5,207.5C 119.759,207.293 117.426,206.293 115.5,204.5 Z"/></g>
<g><path style="opacity:1" fill="#e8f7fb" d="M 225.5,205.5 C 225.027,206.906 224.027,207.573 222.5,207.5C 222.973,206.094 223.973,205.427 225.5,205.5 Z"/></g>
<g><path style="opacity:1" fill="#a8dfef" d="M 130.5,211.5 C 133.491,211.166 135.824,212.166 137.5,214.5C 134.759,214.293 132.426,213.293 130.5,211.5 Z"/></g>
<g><path style="opacity:1" fill="#d7f1f6" d="M 214.5,212.5 C 211.66,214.915 208.327,216.248 204.5,216.5C 207.551,214.648 210.884,213.314 214.5,212.5 Z"/></g>
<g><path style="opacity:1" fill="#a1dcea" d="M 137.5,214.5 C 139.698,214.12 141.365,214.787 142.5,216.5C 140.447,216.598 138.78,215.931 137.5,214.5 Z"/></g>
<g><path style="opacity:1" fill="#97dbeb" d="M 191.5,220.5 C 185.413,222.049 179.08,222.716 172.5,222.5C 167.654,222.499 162.988,222.166 158.5,221.5C 169.523,221.684 180.523,221.351 191.5,220.5 Z"/></g>
</svg>
