<?xml version="1.0" encoding="UTF-8"?>
<!DOCTYPE svg PUBLIC "-//W3C//DTD SVG 1.1//EN" "http://www.w3.org/Graphics/SVG/1.1/DTD/svg11.dtd">
<svg xmlns="http://www.w3.org/2000/svg" version="1.1" width="595px" height="501px" style="shape-rendering:geometricPrecision; text-rendering:geometricPrecision; image-rendering:optimizeQuality; fill-rule:evenodd; clip-rule:evenodd" xmlns:xlink="http://www.w3.org/1999/xlink">
<g><path style="opacity:0.92" fill="#ff5c00" d="M 259.5,-0.5 C 260.167,-0.5 260.833,-0.5 261.5,-0.5C 245.488,22.2042 229.488,44.8709 213.5,67.5C 216.033,43.2651 226.367,23.0984 244.5,7C 249.313,3.92666 254.313,1.42666 259.5,-0.5 Z"/></g>
<g><path style="opacity:0.984" fill="#ff6000" d="M 261.5,-0.5 C 266.833,-0.5 272.167,-0.5 277.5,-0.5C 289.1,3.42756 298.433,10.4276 305.5,20.5C 268.167,73.5 230.833,126.5 193.5,179.5C 199.97,142.003 206.637,104.67 213.5,67.5C 229.488,44.8709 245.488,22.2042 261.5,-0.5 Z"/></g>
<g><path style="opacity:0.984" fill="#ff6600" d="M 305.5,20.5 C 316.817,35.7829 327.15,51.7829 336.5,68.5C 321.922,87.9894 307.589,107.656 293.5,127.5C 288.025,118.564 282.525,109.564 277,100.5C 275.959,98.4148 274.459,96.7481 272.5,95.5C 266.841,124.456 261.508,153.456 256.5,182.5C 238.933,206.62 221.6,230.953 204.5,255.5C 177.266,264.355 149.932,273.022 122.5,281.5C 141.5,254.167 160.5,226.833 179.5,199.5C 183.449,198.775 186.949,197.109 190,194.5C 191.38,189.554 192.547,184.554 193.5,179.5C 230.833,126.5 268.167,73.5 305.5,20.5 Z"/></g>
<g><path style="opacity:0.981" fill="#ff6d00" d="M 336.5,68.5 C 343.593,79.5904 350.259,90.9237 356.5,102.5C 342.143,122.2 328.143,142.2 314.5,162.5C 307.263,151.035 300.263,139.368 293.5,127.5C 307.589,107.656 321.922,87.9894 336.5,68.5 Z"/></g>
<g><path style="opacity:0.984" fill="#ff8600" d="M 580.5,102.5 C 525.902,182.033 470.569,261.033 414.5,339.5C 407.361,325.892 400.194,312.225 393,298.5C 392.333,297.167 392.333,295.833 393,294.5C 426,255.5 459,216.5 492,177.5C 492.432,176.4 491.932,175.733 490.5,175.5C 483.814,177.171 477.148,178.838 470.5,180.5C 487.91,154.688 505.577,129.022 523.5,103.5C 537.557,97.9032 552.224,96.0698 567.5,98C 572.038,99.0123 576.371,100.512 580.5,102.5 Z"/></g>
<g><path style="opacity:0.981" fill="#ff7300" d="M 356.5,102.5 C 363.803,113.995 370.97,125.661 378,137.5C 379.11,139.037 380.61,139.703 382.5,139.5C 368.067,160.712 353.4,181.712 338.5,202.5C 330.137,189.451 322.137,176.118 314.5,162.5C 328.143,142.2 342.143,122.2 356.5,102.5 Z"/></g>
<g><path style="opacity:0.98" fill="#ff8b00" d="M 580.5,102.5 C 586.579,106.243 591.245,111.243 594.5,117.5C 594.5,125.167 594.5,132.833 594.5,140.5C 590.91,150.341 585.743,159.341 579,167.5C 542.292,209.873 505.958,252.539 470,295.5C 469.333,297.167 469.333,298.833 470,300.5C 475.114,309.73 479.948,319.063 484.5,328.5C 469.81,348.533 455.477,368.866 441.5,389.5C 431.993,373.155 422.993,356.489 414.5,339.5C 470.569,261.033 525.902,182.033 580.5,102.5 Z"/></g>
<g><path style="opacity:0.977" fill="#ff8000" d="M 523.5,103.5 C 505.577,129.022 487.91,154.688 470.5,180.5C 444.516,187.494 418.516,194.494 392.5,201.5C 410.89,175.776 428.89,149.776 446.5,123.5C 472.096,116.581 497.762,109.914 523.5,103.5 Z"/></g>
<g><path style="opacity:0.978" fill="#ff7900" d="M 446.5,123.5 C 428.89,149.776 410.89,175.776 392.5,201.5C 377.4,205.088 362.4,209.088 347.5,213.5C 343.328,210.841 340.328,207.174 338.5,202.5C 353.4,181.712 368.067,160.712 382.5,139.5C 403.983,134.784 425.317,129.45 446.5,123.5 Z"/></g>
<g><path style="opacity:0.942" fill="#ff6b00" d="M 256.5,182.5 C 253.11,201.841 249.61,221.175 246,240.5C 244.786,242.049 243.286,243.215 241.5,244C 229.299,248.299 216.966,252.133 204.5,255.5C 221.6,230.953 238.933,206.62 256.5,182.5 Z"/></g>
<g><path style="opacity:0.986" fill="#ff6000" d="M 179.5,199.5 C 160.5,226.833 141.5,254.167 122.5,281.5C 114.339,283.832 106.339,286.665 98.5,290C 103.235,291.743 107.902,293.577 112.5,295.5C 98.1667,316.167 83.8333,336.833 69.5,357.5C 53.9266,351.713 39.26,344.38 25.5,335.5C 51.8209,298.204 78.1543,260.871 104.5,223.5C 129.281,215.13 154.281,207.13 179.5,199.5 Z"/></g>
<g><path style="opacity:0.983" fill="#ff5b00" d="M 104.5,223.5 C 78.1543,260.871 51.8209,298.204 25.5,335.5C 12.6253,326.07 3.95861,313.737 -0.5,298.5C -0.5,298.167 -0.5,297.833 -0.5,297.5C 11.4676,280.523 23.4676,263.523 35.5,246.5C 58.0577,237.87 81.0577,230.203 104.5,223.5 Z"/></g>
<g><path style="opacity:0.905" fill="#ff5600" d="M 35.5,246.5 C 23.4676,263.523 11.4676,280.523 -0.5,297.5C -0.5,292.833 -0.5,288.167 -0.5,283.5C 5.3386,265.326 17.3386,252.993 35.5,246.5 Z"/></g>
<g><path style="opacity:0.983" fill="#ff6700" d="M 112.5,295.5 C 129.24,302.211 145.906,308.878 162.5,315.5C 147.417,336.576 132.751,357.91 118.5,379.5C 102.048,372.441 85.715,365.108 69.5,357.5C 83.8333,336.833 98.1667,316.167 112.5,295.5 Z"/></g>
<g><path style="opacity:0.972" fill="#ff6c00" d="M 162.5,315.5 C 174.347,319.931 186.014,324.597 197.5,329.5C 191.117,337.886 185.117,346.553 179.5,355.5C 164.272,366.369 148.439,376.369 132,385.5C 127.429,383.59 122.929,381.59 118.5,379.5C 132.751,357.91 147.417,336.576 162.5,315.5 Z"/></g>
<g><path style="opacity:0.985" fill="#ff9200" d="M 484.5,328.5 C 494.433,346.699 504.099,365.032 513.5,383.5C 488.92,418.326 464.587,453.326 440.5,488.5C 421.265,483.279 402.265,477.613 383.5,471.5C 397.267,451.62 411.267,431.953 425.5,412.5C 435.656,414.551 445.656,417.218 455.5,420.5C 455.833,420.167 456.167,419.833 456.5,419.5C 451.441,409.466 446.441,399.466 441.5,389.5C 455.477,368.866 469.81,348.533 484.5,328.5 Z"/></g>
<g><path style="opacity:0.877" fill="#ff7100" d="M 197.5,329.5 C 200.772,330.758 204.106,331.925 207.5,333C 208.91,333.368 209.91,334.201 210.5,335.5C 200.62,342.936 190.287,349.602 179.5,355.5C 185.117,346.553 191.117,337.886 197.5,329.5 Z"/></g>
<g><path style="opacity:0.979" fill="#ff9800" d="M 513.5,383.5 C 522.496,399.489 530.996,415.822 539,432.5C 547.221,459.492 539.388,480.325 515.5,495C 510.154,497.17 504.821,499.003 499.5,500.5C 493.167,500.5 486.833,500.5 480.5,500.5C 466.88,497.516 453.546,493.516 440.5,488.5C 464.587,453.326 488.92,418.326 513.5,383.5 Z"/></g>
<g><path style="opacity:0.899" fill="#ff8800" d="M 374.5,397.5 C 368.189,407.135 361.523,416.468 354.5,425.5C 352.228,413.869 350.395,402.202 349,390.5C 357.463,392.931 365.963,395.265 374.5,397.5 Z"/></g>
<g><path style="opacity:0.974" fill="#ff8c00" d="M 374.5,397.5 C 391.628,402.362 408.628,407.362 425.5,412.5C 411.267,431.953 397.267,451.62 383.5,471.5C 376.098,469.859 368.931,467.525 362,464.5C 358.641,451.68 356.141,438.68 354.5,425.5C 361.523,416.468 368.189,407.135 374.5,397.5 Z"/></g>
</svg>
