<?xml version="1.0" encoding="UTF-8"?>
<!DOCTYPE svg PUBLIC "-//W3C//DTD SVG 1.1//EN" "http://www.w3.org/Graphics/SVG/1.1/DTD/svg11.dtd">
<svg xmlns="http://www.w3.org/2000/svg" version="1.1" width="600px" height="600px" style="shape-rendering:geometricPrecision; text-rendering:geometricPrecision; image-rendering:optimizeQuality; fill-rule:evenodd; clip-rule:evenodd" xmlns:xlink="http://www.w3.org/1999/xlink">
<g><path style="opacity:0.992" fill="#b8e1f3" d="M 542.5,150.5 C 542.167,150.5 541.833,150.5 541.5,150.5C 515.167,150.5 488.833,150.5 462.5,150.5C 460.012,142.871 457.012,135.538 453.5,128.5C 442.675,121.196 431.675,114.03 420.5,107C 349.5,106.333 278.5,106.333 207.5,107C 191.097,113.743 174.764,120.576 158.5,127.5C 157.542,127.953 156.708,128.619 156,129.5C 152.487,136.527 148.987,143.527 145.5,150.5C 145.167,150.5 144.833,150.5 144.5,150.5C 115.833,150.5 87.1667,150.5 58.5,150.5C 105.526,76.1059 172.86,31.9392 260.5,18C 364.113,6.74593 450.28,39.9126 519,117.5C 527.441,128.101 535.274,139.101 542.5,150.5 Z"/></g>
<g><path style="opacity:1" fill="#f5fafd" d="M 453.5,128.5 C 437.833,128.5 422.167,128.5 406.5,128.5C 323.665,128.833 240.998,128.499 158.5,127.5C 174.764,120.576 191.097,113.743 207.5,107C 278.5,106.333 349.5,106.333 420.5,107C 431.675,114.03 442.675,121.196 453.5,128.5 Z"/></g>
<g><path style="opacity:1" fill="#e9f6fd" d="M 158.5,127.5 C 240.998,128.499 323.665,128.833 406.5,128.5C 406.5,135.833 406.5,143.167 406.5,150.5C 319.5,150.5 232.5,150.5 145.5,150.5C 148.987,143.527 152.487,136.527 156,129.5C 156.708,128.619 157.542,127.953 158.5,127.5 Z"/></g>
<g><path style="opacity:1" fill="#c7e5f6" d="M 406.5,128.5 C 422.167,128.5 437.833,128.5 453.5,128.5C 457.012,135.538 460.012,142.871 462.5,150.5C 443.833,150.5 425.167,150.5 406.5,150.5C 406.5,143.167 406.5,135.833 406.5,128.5 Z"/></g>
<g><path style="opacity:0.995" fill="#277abe" d="M 58.5,150.5 C 87.1667,150.5 115.833,150.5 144.5,150.5C 136.21,170.412 127.377,190.079 118,209.5C 117.333,210.833 117.333,212.167 118,213.5C 129.861,240.084 141.528,266.751 153,293.5C 174.998,311.334 196.831,329.334 218.5,347.5C 214.391,372.486 210.391,397.486 206.5,422.5C 205.224,423.386 205.224,424.386 206.5,425.5C 240.152,457.985 273.652,490.652 307,523.5C 307.399,523.272 307.565,522.938 307.5,522.5C 331.553,487.419 354.886,451.753 377.5,415.5C 391.466,401.366 405.3,387.032 419,372.5C 419.5,343.169 419.667,313.835 419.5,284.5C 441.5,259.167 463.5,233.833 485.5,208.5C 479.161,189.491 471.828,170.825 463.5,152.5C 489.664,151.833 515.664,151.167 541.5,150.5C 541.833,150.5 542.167,150.5 542.5,150.5C 590.156,233.156 596.989,319.156 563,408.5C 531.415,480.419 479.582,531.919 407.5,563C 320.174,595.806 235.841,589.472 154.5,544C 65.4571,487.307 19.1238,405.807 15.5,299.5C 16.0413,245.638 30.3747,195.972 58.5,150.5 Z"/></g>
<g><path style="opacity:1" fill="#b7e0f3" d="M 145.5,150.5 C 232.5,150.5 319.5,150.5 406.5,150.5C 406.5,150.833 406.5,151.167 406.5,151.5C 371.167,151.5 335.833,151.5 300.5,151.5C 301.237,198.499 301.904,245.499 302.5,292.5C 302.167,292.5 301.833,292.5 301.5,292.5C 240.452,266.266 179.785,239.266 119.5,211.5C 162.016,191.41 204.683,171.576 247.5,152C 213.331,151.832 179.331,151.332 145.5,150.5 Z"/></g>
<g><path style="opacity:1" fill="#68c1ea" d="M 406.5,151.5 C 406.5,182.5 406.5,213.5 406.5,244.5C 372.5,260.833 338.5,277.167 304.5,293.5C 304.167,293.5 303.833,293.5 303.5,293.5C 303.167,293.5 302.833,293.5 302.5,293.5C 302.5,293.167 302.5,292.833 302.5,292.5C 301.904,245.499 301.237,198.499 300.5,151.5C 335.833,151.5 371.167,151.5 406.5,151.5 Z"/></g>
<g><path style="opacity:1" fill="#4e8bc9" d="M 406.5,150.5 C 425.167,150.5 443.833,150.5 462.5,150.5C 488.833,150.5 515.167,150.5 541.5,150.5C 515.664,151.167 489.664,151.833 463.5,152.5C 471.828,170.825 479.161,189.491 485.5,208.5C 459.255,220.791 432.922,232.791 406.5,244.5C 406.5,213.5 406.5,182.5 406.5,151.5C 406.5,151.167 406.5,150.833 406.5,150.5 Z"/></g>
<g><path style="opacity:1" fill="#256ea7" d="M 485.5,208.5 C 463.5,233.833 441.5,259.167 419.5,284.5C 381.141,287.21 342.808,290.21 304.5,293.5C 338.5,277.167 372.5,260.833 406.5,244.5C 432.922,232.791 459.255,220.791 485.5,208.5 Z"/></g>
<g><path style="opacity:1" fill="#90d4f0" d="M 144.5,150.5 C 144.833,150.5 145.167,150.5 145.5,150.5C 179.331,151.332 213.331,151.832 247.5,152C 204.683,171.576 162.016,191.41 119.5,211.5C 179.785,239.266 240.452,266.266 301.5,292.5C 301.586,293.496 301.252,294.329 300.5,295C 273.094,312.026 246.094,329.526 219.5,347.5C 219.167,347.5 218.833,347.5 218.5,347.5C 196.831,329.334 174.998,311.334 153,293.5C 141.528,266.751 129.861,240.084 118,213.5C 117.333,212.167 117.333,210.833 118,209.5C 127.377,190.079 136.21,170.412 144.5,150.5 Z"/></g>
<g><path style="opacity:1" fill="#4d8ac8" d="M 419.5,284.5 C 419.667,313.835 419.5,343.169 419,372.5C 405.3,387.032 391.466,401.366 377.5,415.5C 377.5,414.833 377.167,414.5 376.5,414.5C 351.699,374.384 327.366,334.051 303.5,293.5C 303.833,293.5 304.167,293.5 304.5,293.5C 342.808,290.21 381.141,287.21 419.5,284.5 Z"/></g>
<g><path style="opacity:1" fill="#abdcf1" d="M 301.5,292.5 C 301.833,292.5 302.167,292.5 302.5,292.5C 302.5,292.833 302.5,293.167 302.5,293.5C 302.096,319.508 301.429,345.508 300.5,371.5C 299.596,372.209 299.263,373.209 299.5,374.5C 272.877,365.514 246.211,356.514 219.5,347.5C 246.094,329.526 273.094,312.026 300.5,295C 301.252,294.329 301.586,293.496 301.5,292.5 Z"/></g>
<g><path style="opacity:1" fill="#54a4d7" d="M 302.5,293.5 C 302.833,293.5 303.167,293.5 303.5,293.5C 327.366,334.051 351.699,374.384 376.5,414.5C 351.193,401.513 325.86,388.513 300.5,375.5C 300.5,374.167 300.5,372.833 300.5,371.5C 301.429,345.508 302.096,319.508 302.5,293.5 Z"/></g>
<g><path style="opacity:1" fill="#b7e0f2" d="M 218.5,347.5 C 218.833,347.5 219.167,347.5 219.5,347.5C 246.211,356.514 272.877,365.514 299.5,374.5C 299.5,398.167 299.5,421.833 299.5,445.5C 269.825,439.11 240.159,432.61 210.5,426C 208.456,425.502 207.122,424.335 206.5,422.5C 210.391,397.486 214.391,372.486 218.5,347.5 Z"/></g>
<g><path style="opacity:1" fill="#55aede" d="M 300.5,375.5 C 325.86,388.513 351.193,401.513 376.5,414.5C 377.167,414.5 377.5,414.833 377.5,415.5C 351.833,425.5 326.167,435.5 300.5,445.5C 300.5,422.167 300.5,398.833 300.5,375.5 Z"/></g>
<g><path style="opacity:1" fill="#256ea7" d="M 377.5,415.5 C 354.886,451.753 331.553,487.419 307.5,522.5C 305.218,496.829 302.884,471.163 300.5,445.5C 326.167,435.5 351.833,425.5 377.5,415.5 Z"/></g>
<g><path style="opacity:1" fill="#90d4f0" d="M 300.5,371.5 C 300.5,372.833 300.5,374.167 300.5,375.5C 300.5,398.833 300.5,422.167 300.5,445.5C 302.884,471.163 305.218,496.829 307.5,522.5C 307.565,522.938 307.399,523.272 307,523.5C 273.652,490.652 240.152,457.985 206.5,425.5C 205.224,424.386 205.224,423.386 206.5,422.5C 207.122,424.335 208.456,425.502 210.5,426C 240.159,432.61 269.825,439.11 299.5,445.5C 299.5,421.833 299.5,398.167 299.5,374.5C 299.263,373.209 299.596,372.209 300.5,371.5 Z"/></g>
</svg>
